<?xml version="1.0" standalone="no"?>
<!DOCTYPE svg PUBLIC "-//W3C//DTD SVG 20010904//EN"
 "http://www.w3.org/TR/2001/REC-SVG-20010904/DTD/svg10.dtd">
<svg version="1.0" xmlns="http://www.w3.org/2000/svg"
 width="529.000000pt" height="529.000000pt" viewBox="0 0 529.000000 529.000000"
 preserveAspectRatio="xMidYMid meet">
<metadata>
Created by potrace 1.14, written by Peter Selinger 2001-2017
</metadata>
<g transform="translate(0.000000,529.000000) scale(0.100000,-0.100000)"
fill="#000000" stroke="none">
<path d="M3790 4937 c-3 -3 -17 -8 -30 -10 -33 -6 -83 -29 -92 -42 -4 -5 -8
-6 -8 -2 0 4 -24 -11 -54 -33 -48 -37 -56 -39 -82 -30 -16 6 -63 12 -106 14
-53 1 -83 7 -95 18 -23 20 -98 54 -139 62 -33 7 -117 9 -144 3 -76 -16 -136
-51 -195 -113 l-30 -32 -140 -6 c-133 -5 -199 -11 -255 -22 -14 -3 -41 -7 -60
-10 -19 -2 -42 -7 -50 -9 -8 -3 -33 -7 -55 -10 -67 -10 -292 -81 -415 -132 -8
-3 -19 -7 -25 -8 -24 -6 -275 -134 -325 -166 -30 -19 -63 -38 -72 -42 -10 -3
-52 -30 -94 -59 -42 -29 -84 -57 -93 -63 -25 -15 -95 -68 -106 -79 -5 -6 -28
-24 -50 -40 -22 -16 -60 -49 -85 -73 -24 -24 -47 -43 -51 -43 -14 0 -276 -271
-329 -339 -30 -40 -60 -77 -65 -84 -12 -13 -59 -119 -70 -154 -3 -13 -12 -29
-20 -37 -7 -7 -25 -35 -38 -62 -22 -44 -55 -106 -93 -174 -11 -20 -29 -61 -39
-90 -2 -5 -17 -41 -50 -115 -24 -54 -53 -148 -83 -270 -27 -106 -35 -148 -57
-280 -7 -40 -18 -217 -17 -280 0 -166 48 -436 84 -479 4 -6 8 -17 8 -26 0 -23
41 -58 63 -55 11 2 20 5 21 7 25 39 39 66 55 107 11 27 38 79 60 115 23 36 41
71 41 76 0 6 4 10 9 10 4 0 21 19 36 41 15 23 39 54 54 69 14 15 33 37 42 49
15 20 163 172 214 219 24 23 255 197 310 234 99 67 226 174 340 285 63 62 75
70 86 57 7 -8 26 -22 42 -30 58 -30 143 0 295 106 78 55 88 59 99 44 22 -30
88 -13 178 44 44 28 81 48 83 43 5 -13 79 5 132 32 28 14 50 24 50 21 0 -3
-16 -26 -35 -51 -19 -25 -35 -51 -35 -57 0 -6 -11 -27 -23 -46 -38 -56 -124
-231 -133 -270 -1 -8 -16 -50 -32 -92 -17 -43 -28 -78 -26 -78 2 0 -1 -12 -7
-27 -6 -15 -12 -46 -15 -68 -3 -22 -7 -51 -10 -65 -3 -14 -7 -38 -9 -55 -14
-119 -16 -147 -17 -200 -1 -173 43 -364 88 -382 9 -3 28 4 42 15 15 12 53 36
85 54 31 18 57 36 57 40 0 5 4 8 9 8 5 0 36 15 68 32 33 18 64 34 69 35 5 1
60 25 122 53 62 28 127 53 145 57 17 3 43 11 57 18 14 7 37 15 52 19 23 5 29
1 42 -24 35 -70 60 -203 60 -315 0 -94 -4 -123 -29 -200 -16 -49 -30 -94 -31
-100 -1 -5 -7 -30 -14 -55 -7 -25 -14 -54 -16 -65 -59 -290 -43 -513 49 -689
23 -43 98 -127 108 -120 5 3 9 1 9 -5 0 -13 137 -79 181 -87 132 -23 342 -4
503 46 38 12 76 23 85 25 9 2 49 15 89 28 39 14 72 22 72 19 0 -4 4 -2 8 4 4
5 25 18 47 28 175 79 290 154 396 259 163 160 249 359 244 558 -4 137 -50 270
-125 359 -81 97 -127 228 -116 331 9 95 36 174 112 334 26 55 48 102 49 105 0
3 28 61 62 130 34 69 64 141 68 160 4 19 11 40 15 45 8 11 48 163 56 217 20
120 3 298 -36 399 -11 27 -17 49 -14 49 4 0 2 6 -3 13 -6 6 -21 44 -33 82 -12
39 -26 75 -30 80 -4 6 -15 30 -24 54 -15 38 -15 43 -2 32 9 -8 16 -18 16 -23
0 -6 8 -22 19 -36 10 -15 25 -47 32 -72 7 -25 16 -49 19 -55 4 -5 17 -50 30
-100 21 -89 46 -176 57 -205 8 -19 10 -27 12 -40 2 -15 38 -31 56 -24 8 4 24
25 34 48 23 49 20 120 -9 204 l-19 57 20 -25 c12 -14 32 -45 45 -70 14 -25 34
-61 45 -80 25 -41 57 -120 62 -152 6 -42 31 -98 43 -98 20 0 27 39 26 145 -1
99 -6 162 -18 220 -11 54 -67 155 -111 203 -24 26 -61 65 -81 86 -25 27 -29
34 -12 23 59 -41 172 -89 234 -99 59 -10 69 -9 84 5 18 19 25 11 -74 87 -151
115 -283 235 -386 351 -81 93 -160 189 -188 229 -13 19 -42 58 -64 85 -23 28
-45 57 -51 66 -38 61 -179 237 -260 324 -38 42 -137 107 -195 129 -44 18 -180
34 -190 23z"/>
</g>
</svg>
